<!--
  Two columns.
  Left container: the project repo.
  Right column: personal, team, and organization repos, each in its own container, lined up with the top of the project repo.
  Below them, the top-left of a memory.md file. Its right and bottom edges are cut off.
  A line separates each row inside a container.
  Colored labels sit outside the container, on the same row as the folder or file they describe.

  Text y is the baseline. On the system font, the middle of the letter box
  sits 5.1px above that baseline at 13.5px, and 4.5px above it at 12px.
-->
<svg xmlns="http://www.w3.org/2000/svg" width="1147" height="632" viewBox="0 0 1147 632" role="img" aria-labelledby="title desc">
<title id="title">Memory file tree</title>
<desc id="desc">The acme-app project repository and separate personal, team, and organization repositories have Git-folder icons and orange repo tags. All six .memories folder rows are highlighted blue. Outside labels describe the folders and files, and a Markdown preview shows a memory with multiple scopes.</desc>
<rect width="1147" height="632" fill="#0e0e10"/>
<defs>
<pattern id="grid" width="32" height="32" patternUnits="userSpaceOnUse">
<path d="M32 0H0V32" fill="none" stroke="#1b1b1f" stroke-width="1"/>
</pattern>
    <g id="folder-git" fill="none" stroke="currentColor" stroke-width="2" stroke-linecap="round" stroke-linejoin="round">
      <path d="M18 19a5 5 0 0 1-5-5v8"/>
      <path d="M9 20H4a2 2 0 0 1-2-2V5a2 2 0 0 1 2-2h3.9a2 2 0 0 1 1.69.9l.81 1.2a2 2 0 0 0 1.67.9H20a2 2 0 0 1 2 2v5"/>
      <circle cx="13" cy="12" r="2"/>
      <circle cx="20" cy="19" r="2"/>
    </g>
<clipPath id="project-rows"><rect x="36" y="36" width="280" height="526" rx="14"/></clipPath>
<clipPath id="personal-rows"><rect x="602" y="36" width="248" height="84" rx="14"/></clipPath>
<clipPath id="team-rows"><rect x="602" y="136" width="248" height="84" rx="14"/></clipPath>
<clipPath id="organization-rows"><rect x="602" y="236" width="248" height="84" rx="14"/></clipPath>
</defs>
<rect width="1147" height="632" fill="url(#grid)"/>
<rect x="36" y="36" width="280" height="526" rx="14" fill="#1c1c1f"/>
<g clip-path="url(#project-rows)">
  <rect x="36" y="78" width="280" height="34" fill="#1b2d45"/>
  <rect x="36" y="180" width="280" height="34" fill="#1b2d45"/>
  <rect x="36" y="520" width="280" height="42" fill="#1b2d45"/>
</g>
<rect x="36" y="36" width="280" height="526" rx="14" fill="none" stroke="#3a3a40" stroke-width="1"/>
<line x1="36" y1="78" x2="316" y2="78" stroke="#323238" stroke-width="1"/>
<line x1="36" y1="112" x2="316" y2="112" stroke="#323238" stroke-width="1"/>
<line x1="36" y1="146" x2="316" y2="146" stroke="#323238" stroke-width="1"/>
<line x1="36" y1="180" x2="316" y2="180" stroke="#323238" stroke-width="1"/>
<line x1="36" y1="214" x2="316" y2="214" stroke="#323238" stroke-width="1"/>
<line x1="36" y1="248" x2="316" y2="248" stroke="#323238" stroke-width="1"/>
<line x1="36" y1="282" x2="316" y2="282" stroke="#323238" stroke-width="1"/>
<line x1="36" y1="316" x2="316" y2="316" stroke="#323238" stroke-width="1"/>
<line x1="36" y1="350" x2="316" y2="350" stroke="#323238" stroke-width="1"/>
<line x1="36" y1="384" x2="316" y2="384" stroke="#323238" stroke-width="1"/>
<line x1="36" y1="418" x2="316" y2="418" stroke="#323238" stroke-width="1"/>
<line x1="36" y1="452" x2="316" y2="452" stroke="#323238" stroke-width="1"/>
<line x1="36" y1="486" x2="316" y2="486" stroke="#323238" stroke-width="1"/>
<line x1="36" y1="520" x2="316" y2="520" stroke="#323238" stroke-width="1"/>
<use href="#folder-git" transform="translate(49 52) scale(0.75)" color="#e4e4e7"/>
<text x="74" y="66.1" fill="#fafafa" font-family='ui-sans-serif, system-ui, -apple-system, BlinkMacSystemFont, "Segoe UI", Helvetica, Arial, sans-serif' font-size="13.5" font-weight="600">acme-app</text>
<rect x="264" y="51" width="40" height="20" rx="5" fill="#141416" stroke="#f97316"/>
<text x="284" y="64.9" fill="#fdba74" font-family='ui-sans-serif, system-ui, -apple-system, BlinkMacSystemFont, "Segoe UI", Helvetica, Arial, sans-serif' font-size="10.5" font-weight="600" text-anchor="middle">repo</text>
<g transform="translate(66 87) scale(0.6666666666666666)" fill="none" stroke="#60a5fa" stroke-width="1.75" stroke-linejoin="round" stroke-linecap="round"><path d="M3 7.5A2.5 2.5 0 0 1 5.5 5H9l2 2h7.5A2.5 2.5 0 0 1 21 9.5v8a2.5 2.5 0 0 1-2.5 2.5h-13A2.5 2.5 0 0 1 3 17.5v-10z"/></g>
<text x="90" y="100.1" fill="#93c5fd" font-family='ui-sans-serif, system-ui, -apple-system, BlinkMacSystemFont, "Segoe UI", Helvetica, Arial, sans-serif' font-size="13.5" font-weight="600">.memories</text>
<circle cx="296" cy="95" r="3.25" fill="#60a5fa"/>
<rect x="330" y="82" width="138" height="26" rx="6" fill="#141416" stroke="#3b82f6" stroke-width="1"/>
<text x="341" y="99.5" fill="#93c5fd" font-family='ui-sans-serif, system-ui, -apple-system, BlinkMacSystemFont, "Segoe UI", Helvetica, Arial, sans-serif' font-size="12" font-weight="600">Repo memory store</text>
<g transform="translate(66 121) scale(0.6666666666666666)" fill="none" stroke="#71717a" stroke-width="1.75" stroke-linejoin="round" stroke-linecap="round"><path d="M3 7.5A2.5 2.5 0 0 1 5.5 5H9l2 2h7.5A2.5 2.5 0 0 1 21 9.5v8a2.5 2.5 0 0 1-2.5 2.5h-13A2.5 2.5 0 0 1 3 17.5v-10z"/></g>
<text x="90" y="134.1" fill="#a1a1aa" font-family='ui-sans-serif, system-ui, -apple-system, BlinkMacSystemFont, "Segoe UI", Helvetica, Arial, sans-serif' font-size="13.5" font-weight="500">apps</text>
<g transform="translate(82 155) scale(0.6666666666666666)" fill="none" stroke="#71717a" stroke-width="1.75" stroke-linejoin="round" stroke-linecap="round"><path d="M3 7.5A2.5 2.5 0 0 1 5.5 5H9l2 2h7.5A2.5 2.5 0 0 1 21 9.5v8a2.5 2.5 0 0 1-2.5 2.5h-13A2.5 2.5 0 0 1 3 17.5v-10z"/></g>
<text x="106" y="168.1" fill="#a1a1aa" font-family='ui-sans-serif, system-ui, -apple-system, BlinkMacSystemFont, "Segoe UI", Helvetica, Arial, sans-serif' font-size="13.5" font-weight="500">web</text>
<g transform="translate(98 189) scale(0.6666666666666666)" fill="none" stroke="#60a5fa" stroke-width="1.75" stroke-linejoin="round" stroke-linecap="round"><path d="M3 7.5A2.5 2.5 0 0 1 5.5 5H9l2 2h7.5A2.5 2.5 0 0 1 21 9.5v8a2.5 2.5 0 0 1-2.5 2.5h-13A2.5 2.5 0 0 1 3 17.5v-10z"/></g>
<text x="122" y="202.1" fill="#93c5fd" font-family='ui-sans-serif, system-ui, -apple-system, BlinkMacSystemFont, "Segoe UI", Helvetica, Arial, sans-serif' font-size="13.5" font-weight="600">.memories</text>
<circle cx="296" cy="197" r="3.25" fill="#60a5fa"/>
<rect x="330" y="184" width="164" height="26" rx="6" fill="#141416" stroke="#3b82f6" stroke-width="1"/>
<text x="341" y="201.5" fill="#93c5fd" font-family='ui-sans-serif, system-ui, -apple-system, BlinkMacSystemFont, "Segoe UI", Helvetica, Arial, sans-serif' font-size="12" font-weight="600">apps/web memory store</text>
<g transform="translate(114 223) scale(0.6666666666666666)" fill="none" stroke="#e4e4e7" stroke-width="1.75" stroke-linejoin="round" stroke-linecap="round"><path d="M3 7.5A2.5 2.5 0 0 1 5.5 5H9l2 2h7.5A2.5 2.5 0 0 1 21 9.5v8a2.5 2.5 0 0 1-2.5 2.5h-13A2.5 2.5 0 0 1 3 17.5v-10z"/></g>
<text x="138" y="236.1" fill="#fafafa" font-family='ui-sans-serif, system-ui, -apple-system, BlinkMacSystemFont, "Segoe UI", Helvetica, Arial, sans-serif' font-size="13.5" font-weight="600">errors</text>
<circle cx="296" cy="231" r="3.25" fill="#facc15"/>
<rect x="330" y="218" width="111" height="26" rx="6" fill="#141416" stroke="#eab308" stroke-width="1"/>
<text x="341" y="235.5" fill="#fde047" font-family='ui-sans-serif, system-ui, -apple-system, BlinkMacSystemFont, "Segoe UI", Helvetica, Arial, sans-serif' font-size="12" font-weight="600">Searchable tag</text>
<g transform="translate(130 257) scale(0.6666666666666666)" fill="none" stroke="#e4e4e7" stroke-width="1.75" stroke-linejoin="round" stroke-linecap="round"><path d="M3 7.5A2.5 2.5 0 0 1 5.5 5H9l2 2h7.5A2.5 2.5 0 0 1 21 9.5v8a2.5 2.5 0 0 1-2.5 2.5h-13A2.5 2.5 0 0 1 3 17.5v-10z"/></g>
<text x="154" y="270.1" fill="#fafafa" font-family='ui-sans-serif, system-ui, -apple-system, BlinkMacSystemFont, "Segoe UI", Helvetica, Arial, sans-serif' font-size="13.5" font-weight="600">webpack-error</text>
<circle cx="296" cy="265" r="3.25" fill="#4ade80"/>
<rect x="330" y="252" width="97" height="26" rx="6" fill="#141416" stroke="#22c55e" stroke-width="1"/>
<text x="341" y="269.5" fill="#86efac" font-family='ui-sans-serif, system-ui, -apple-system, BlinkMacSystemFont, "Segoe UI", Helvetica, Arial, sans-serif' font-size="12" font-weight="600">Memory title</text>
<g transform="translate(146 291) scale(0.6666666666666666)" fill="none" stroke="#e4e4e7" stroke-width="1.75" stroke-linejoin="round" stroke-linecap="round"><path d="M7 3.5h6.7L19 8.7V19a1.5 1.5 0 0 1-1.5 1.5h-10A1.5 1.5 0 0 1 6 19V5A1.5 1.5 0 0 1 7.5 3.5H7z"/><path d="M13.5 3.5V8.5H19"/></g>
<text x="170" y="304.1" fill="#fafafa" font-family='ui-sans-serif, system-ui, -apple-system, BlinkMacSystemFont, "Segoe UI", Helvetica, Arial, sans-serif' font-size="13.5" font-weight="600">memory.md</text>
<circle cx="296" cy="299" r="3.25" fill="#4ade80"/>
<rect x="330" y="286" width="92" height="26" rx="6" fill="#141416" stroke="#22c55e" stroke-width="1"/>
<text x="341" y="303.5" fill="#86efac" font-family='ui-sans-serif, system-ui, -apple-system, BlinkMacSystemFont, "Segoe UI", Helvetica, Arial, sans-serif' font-size="12" font-weight="600">Memory file</text>
<g transform="translate(146 325) scale(0.6666666666666666)" fill="none" stroke="#e4e4e7" stroke-width="1.75" stroke-linejoin="round" stroke-linecap="round"><path d="M7 3.5h6.7L19 8.7V19a1.5 1.5 0 0 1-1.5 1.5h-10A1.5 1.5 0 0 1 6 19V5A1.5 1.5 0 0 1 7.5 3.5H7z"/><path d="M13.5 3.5V8.5H19"/></g>
<text x="170" y="338.1" fill="#fafafa" font-family='ui-sans-serif, system-ui, -apple-system, BlinkMacSystemFont, "Segoe UI", Helvetica, Arial, sans-serif' font-size="13.5" font-weight="600">response.json</text>
<circle cx="296" cy="333" r="3.25" fill="#4ade80"/>
<rect x="330" y="320" width="236" height="26" rx="6" fill="#141416" stroke="#22c55e" stroke-width="1"/>
<text x="341" y="337.5" fill="#86efac" font-family='ui-sans-serif, system-ui, -apple-system, BlinkMacSystemFont, "Segoe UI", Helvetica, Arial, sans-serif' font-size="12" font-weight="600">Memory attachment, not searchable</text>
<g transform="translate(146 359) scale(0.6666666666666666)" fill="none" stroke="#e4e4e7" stroke-width="1.75" stroke-linejoin="round" stroke-linecap="round"><path d="M7 3.5h6.7L19 8.7V19a1.5 1.5 0 0 1-1.5 1.5h-10A1.5 1.5 0 0 1 6 19V5A1.5 1.5 0 0 1 7.5 3.5H7z"/><path d="M13.5 3.5V8.5H19"/></g>
<text x="170" y="372.1" fill="#fafafa" font-family='ui-sans-serif, system-ui, -apple-system, BlinkMacSystemFont, "Segoe UI", Helvetica, Arial, sans-serif' font-size="13.5" font-weight="600">error.png</text>
<g transform="translate(114 393) scale(0.6666666666666666)" fill="none" stroke="#71717a" stroke-width="1.75" stroke-linejoin="round" stroke-linecap="round"><path d="M3 7.5A2.5 2.5 0 0 1 5.5 5H9l2 2h7.5A2.5 2.5 0 0 1 21 9.5v8a2.5 2.5 0 0 1-2.5 2.5h-13A2.5 2.5 0 0 1 3 17.5v-10z"/></g>
<text x="138" y="406.1" fill="#a1a1aa" font-family='ui-sans-serif, system-ui, -apple-system, BlinkMacSystemFont, "Segoe UI", Helvetica, Arial, sans-serif' font-size="13.5" font-weight="500">gotchas</text>
<g transform="translate(114 427) scale(0.6666666666666666)" fill="none" stroke="#71717a" stroke-width="1.75" stroke-linejoin="round" stroke-linecap="round"><path d="M3 7.5A2.5 2.5 0 0 1 5.5 5H9l2 2h7.5A2.5 2.5 0 0 1 21 9.5v8a2.5 2.5 0 0 1-2.5 2.5h-13A2.5 2.5 0 0 1 3 17.5v-10z"/></g>
<text x="138" y="440.1" fill="#a1a1aa" font-family='ui-sans-serif, system-ui, -apple-system, BlinkMacSystemFont, "Segoe UI", Helvetica, Arial, sans-serif' font-size="13.5" font-weight="500">ADRs</text>
<g transform="translate(66 461) scale(0.6666666666666666)" fill="none" stroke="#71717a" stroke-width="1.75" stroke-linejoin="round" stroke-linecap="round"><path d="M3 7.5A2.5 2.5 0 0 1 5.5 5H9l2 2h7.5A2.5 2.5 0 0 1 21 9.5v8a2.5 2.5 0 0 1-2.5 2.5h-13A2.5 2.5 0 0 1 3 17.5v-10z"/></g>
<text x="90" y="474.1" fill="#a1a1aa" font-family='ui-sans-serif, system-ui, -apple-system, BlinkMacSystemFont, "Segoe UI", Helvetica, Arial, sans-serif' font-size="13.5" font-weight="500">packages</text>
<g transform="translate(82 495) scale(0.6666666666666666)" fill="none" stroke="#71717a" stroke-width="1.75" stroke-linejoin="round" stroke-linecap="round"><path d="M3 7.5A2.5 2.5 0 0 1 5.5 5H9l2 2h7.5A2.5 2.5 0 0 1 21 9.5v8a2.5 2.5 0 0 1-2.5 2.5h-13A2.5 2.5 0 0 1 3 17.5v-10z"/></g>
<text x="106" y="508.1" fill="#a1a1aa" font-family='ui-sans-serif, system-ui, -apple-system, BlinkMacSystemFont, "Segoe UI", Helvetica, Arial, sans-serif' font-size="13.5" font-weight="500">auth</text>
<g transform="translate(98 529) scale(0.6666666666666666)" fill="none" stroke="#60a5fa" stroke-width="1.75" stroke-linejoin="round" stroke-linecap="round"><path d="M3 7.5A2.5 2.5 0 0 1 5.5 5H9l2 2h7.5A2.5 2.5 0 0 1 21 9.5v8a2.5 2.5 0 0 1-2.5 2.5h-13A2.5 2.5 0 0 1 3 17.5v-10z"/></g>
<text x="122" y="542.1" fill="#93c5fd" font-family='ui-sans-serif, system-ui, -apple-system, BlinkMacSystemFont, "Segoe UI", Helvetica, Arial, sans-serif' font-size="13.5" font-weight="600">.memories</text>
<circle cx="296" cy="537" r="3.25" fill="#60a5fa"/>
<rect x="330" y="524" width="194" height="26" rx="6" fill="#141416" stroke="#3b82f6" stroke-width="1"/>
<text x="341" y="541.5" fill="#93c5fd" font-family='ui-sans-serif, system-ui, -apple-system, BlinkMacSystemFont, "Segoe UI", Helvetica, Arial, sans-serif' font-size="12" font-weight="600">packages/auth memory store</text>
<rect x="602" y="36" width="248" height="84" rx="14" fill="#1c1c1f"/>
<g clip-path="url(#personal-rows)">
  <rect x="602" y="78" width="248" height="42" fill="#1b2d45"/>
</g>
<rect x="602" y="36" width="248" height="84" rx="14" fill="none" stroke="#3a3a40" stroke-width="1"/>
<line x1="602" y1="78" x2="850" y2="78" stroke="#323238" stroke-width="1"/>
<use href="#folder-git" transform="translate(615 52) scale(0.75)" color="#e4e4e7"/>
<text x="640" y="66.1" fill="#fafafa" font-family='ui-sans-serif, system-ui, -apple-system, BlinkMacSystemFont, "Segoe UI", Helvetica, Arial, sans-serif' font-size="13.5" font-weight="600">adam-personal</text>
<rect x="798" y="51" width="40" height="20" rx="5" fill="#141416" stroke="#f97316"/>
<text x="818" y="64.9" fill="#fdba74" font-family='ui-sans-serif, system-ui, -apple-system, BlinkMacSystemFont, "Segoe UI", Helvetica, Arial, sans-serif' font-size="10.5" font-weight="600" text-anchor="middle">repo</text>
<rect x="864" y="48" width="225" height="26" rx="6" fill="#141416" stroke="#8b5cf6" stroke-width="1"/>
<text x="875" y="65.5" fill="#c4b5fd" font-family='ui-sans-serif, system-ui, -apple-system, BlinkMacSystemFont, "Segoe UI", Helvetica, Arial, sans-serif' font-size="12" font-weight="600">Separate repo, personal memories</text>
<g transform="translate(632 87) scale(0.6666666666666666)" fill="none" stroke="#60a5fa" stroke-width="1.75" stroke-linejoin="round" stroke-linecap="round"><path d="M3 7.5A2.5 2.5 0 0 1 5.5 5H9l2 2h7.5A2.5 2.5 0 0 1 21 9.5v8a2.5 2.5 0 0 1-2.5 2.5h-13A2.5 2.5 0 0 1 3 17.5v-10z"/></g>
<text x="656" y="100.1" fill="#93c5fd" font-family='ui-sans-serif, system-ui, -apple-system, BlinkMacSystemFont, "Segoe UI", Helvetica, Arial, sans-serif' font-size="13.5" font-weight="600">.memories</text>
<circle cx="830" cy="95" r="3.25" fill="#60a5fa"/>
<rect x="602" y="136" width="248" height="84" rx="14" fill="#1c1c1f"/>
<g clip-path="url(#team-rows)">
  <rect x="602" y="178" width="248" height="42" fill="#1b2d45"/>
</g>
<rect x="602" y="136" width="248" height="84" rx="14" fill="none" stroke="#3a3a40" stroke-width="1"/>
<line x1="602" y1="178" x2="850" y2="178" stroke="#323238" stroke-width="1"/>
<use href="#folder-git" transform="translate(615 152) scale(0.75)" color="#e4e4e7"/>
<text x="640" y="166.1" fill="#fafafa" font-family='ui-sans-serif, system-ui, -apple-system, BlinkMacSystemFont, "Segoe UI", Helvetica, Arial, sans-serif' font-size="13.5" font-weight="600">acme-team</text>
<rect x="798" y="151" width="40" height="20" rx="5" fill="#141416" stroke="#f97316"/>
<text x="818" y="164.9" fill="#fdba74" font-family='ui-sans-serif, system-ui, -apple-system, BlinkMacSystemFont, "Segoe UI", Helvetica, Arial, sans-serif' font-size="10.5" font-weight="600" text-anchor="middle">repo</text>
<rect x="864" y="148" width="204" height="26" rx="6" fill="#141416" stroke="#14b8a6" stroke-width="1"/>
<text x="875" y="165.5" fill="#5eead4" font-family='ui-sans-serif, system-ui, -apple-system, BlinkMacSystemFont, "Segoe UI", Helvetica, Arial, sans-serif' font-size="12" font-weight="600">Separate repo, team memories</text>
<g transform="translate(632 187) scale(0.6666666666666666)" fill="none" stroke="#60a5fa" stroke-width="1.75" stroke-linejoin="round" stroke-linecap="round"><path d="M3 7.5A2.5 2.5 0 0 1 5.5 5H9l2 2h7.5A2.5 2.5 0 0 1 21 9.5v8a2.5 2.5 0 0 1-2.5 2.5h-13A2.5 2.5 0 0 1 3 17.5v-10z"/></g>
<text x="656" y="200.1" fill="#93c5fd" font-family='ui-sans-serif, system-ui, -apple-system, BlinkMacSystemFont, "Segoe UI", Helvetica, Arial, sans-serif' font-size="13.5" font-weight="600">.memories</text>
<circle cx="830" cy="195" r="3.25" fill="#60a5fa"/>
<rect x="602" y="236" width="248" height="84" rx="14" fill="#1c1c1f"/>
<g clip-path="url(#organization-rows)">
  <rect x="602" y="278" width="248" height="42" fill="#1b2d45"/>
</g>
<rect x="602" y="236" width="248" height="84" rx="14" fill="none" stroke="#3a3a40" stroke-width="1"/>
<line x1="602" y1="278" x2="850" y2="278" stroke="#323238" stroke-width="1"/>
<use href="#folder-git" transform="translate(615 252) scale(0.75)" color="#e4e4e7"/>
<text x="640" y="266.1" fill="#fafafa" font-family='ui-sans-serif, system-ui, -apple-system, BlinkMacSystemFont, "Segoe UI", Helvetica, Arial, sans-serif' font-size="13.5" font-weight="600">acme-memories</text>
<rect x="798" y="251" width="40" height="20" rx="5" fill="#141416" stroke="#f97316"/>
<text x="818" y="264.9" fill="#fdba74" font-family='ui-sans-serif, system-ui, -apple-system, BlinkMacSystemFont, "Segoe UI", Helvetica, Arial, sans-serif' font-size="10.5" font-weight="600" text-anchor="middle">repo</text>
<rect x="864" y="248" width="247" height="26" rx="6" fill="#141416" stroke="#d946ef" stroke-width="1"/>
<text x="875" y="265.5" fill="#f0abfc" font-family='ui-sans-serif, system-ui, -apple-system, BlinkMacSystemFont, "Segoe UI", Helvetica, Arial, sans-serif' font-size="12" font-weight="600">Separate repo, organization memories</text>
<g transform="translate(632 287) scale(0.6666666666666666)" fill="none" stroke="#60a5fa" stroke-width="1.75" stroke-linejoin="round" stroke-linecap="round"><path d="M3 7.5A2.5 2.5 0 0 1 5.5 5H9l2 2h7.5A2.5 2.5 0 0 1 21 9.5v8a2.5 2.5 0 0 1-2.5 2.5h-13A2.5 2.5 0 0 1 3 17.5v-10z"/></g>
<text x="656" y="300.1" fill="#93c5fd" font-family='ui-sans-serif, system-ui, -apple-system, BlinkMacSystemFont, "Segoe UI", Helvetica, Arial, sans-serif' font-size="13.5" font-weight="600">.memories</text>
<circle cx="830" cy="295" r="3.25" fill="#60a5fa"/>

<!--
  A memory.md file with a closed right edge. The clip hides the bottom,
  so the card looks like it continues past the diagram.
  scope lists apps/web and apps/marketing: the memory is not limited to one folder.
-->
<clipPath id="memoryPeek">
  <rect x="600" y="342" width="514" height="290"/>
</clipPath>
<g clip-path="url(#memoryPeek)">
  <rect x="602" y="344" width="509" height="560" rx="14" fill="#1c1c1f"/>
  <!-- Lighter filename bar. Top corners are rounded. The bottom of the card is clipped away. -->
  <path d="M616 344H1097A14 14 0 0 1 1111 358V380H602V358A14 14 0 0 1 616 344Z" fill="#2a2a30"/>
  <rect x="602" y="344" width="509" height="560" rx="14" fill="none" stroke="#3a3a40" stroke-width="1"/>
  <line x1="602" y1="380" x2="1111" y2="380" stroke="#3a3a40" stroke-width="1"/>
  <text x="622" y="366.9" fill="#fafafa" font-family="ui-sans-serif, system-ui, -apple-system, BlinkMacSystemFont, &quot;Segoe UI&quot;, Helvetica, Arial, sans-serif" font-size="13" font-weight="600">memory.md</text>
<text xml:space="preserve" x="622" y="406" font-family="ui-monospace, SFMono-Regular, Menlo, Consolas, monospace" font-size="12.5"><tspan fill="#71717a">---</tspan></text>
<text xml:space="preserve" x="622" y="428" font-family="ui-monospace, SFMono-Regular, Menlo, Consolas, monospace" font-size="12.5"><tspan fill="#a1a1aa">title: </tspan><tspan fill="#fafafa">Next.js cache stays stale after deploy</tspan></text>
<text xml:space="preserve" x="622" y="450" font-family="ui-monospace, SFMono-Regular, Menlo, Consolas, monospace" font-size="12.5"><tspan fill="#a1a1aa">scope:</tspan></text>
<text xml:space="preserve" x="622" y="472" font-family="ui-monospace, SFMono-Regular, Menlo, Consolas, monospace" font-size="12.5"><tspan fill="#fafafa">  - apps/web</tspan></text>
<text xml:space="preserve" x="622" y="494" font-family="ui-monospace, SFMono-Regular, Menlo, Consolas, monospace" font-size="12.5"><tspan fill="#fafafa">  - apps/marketing</tspan></text>
<text xml:space="preserve" x="622" y="516" font-family="ui-monospace, SFMono-Regular, Menlo, Consolas, monospace" font-size="12.5"><tspan fill="#a1a1aa">doNotDelete: </tspan><tspan fill="#fafafa">false</tspan></text>
<text xml:space="preserve" x="622" y="538" font-family="ui-monospace, SFMono-Regular, Menlo, Consolas, monospace" font-size="12.5"><tspan fill="#a1a1aa">doNotEdit: </tspan><tspan fill="#fafafa">false</tspan></text>
<text xml:space="preserve" x="622" y="560" font-family="ui-monospace, SFMono-Regular, Menlo, Consolas, monospace" font-size="12.5"><tspan fill="#a1a1aa">linear: </tspan><tspan fill="#fafafa">https://linear.app/acme/issue/ACME-128/stale-cache</tspan></text>
<text xml:space="preserve" x="622" y="582" font-family="ui-monospace, SFMono-Regular, Menlo, Consolas, monospace" font-size="12.5"><tspan fill="#71717a">---</tspan></text>
<text xml:space="preserve" x="622" y="604" font-family="ui-monospace, SFMono-Regular, Menlo, Consolas, monospace" font-size="12.5"><tspan fill="#d4d4d8">A deploy does not clear the Next.js data cache.</tspan></text>
<text xml:space="preserve" x="622" y="626" font-family="ui-monospace, SFMono-Regular, Menlo, Consolas, monospace" font-size="12.5"><tspan fill="#d4d4d8">Here's why this happens...</tspan></text>
<text xml:space="preserve" x="622" y="648" font-family="ui-monospace, SFMono-Regular, Menlo, Consolas, monospace" font-size="12.5"><tspan fill="#d4d4d8">The homepage still showed the old release after the March ship.</tspan></text>
</g>

</svg>
